<svg id="Capa_1" data-name="Capa 1" xmlns="http://www.w3.org/2000/svg" viewBox="0 0 310.15 165.36"><defs><style>.cls-1{fill:#1d1d1b;}</style></defs><path class="cls-1" d="M173.08,59.66q12-14.25,28.5-14.25a28.83,28.83,0,0,1,11.63,2.4,30.43,30.43,0,0,1,16,16,28.61,28.61,0,0,1,2.4,11.62v34.5a4.86,4.86,0,0,0,1.13,3.45,7,7,0,0,0,2.62,1.8,13.48,13.48,0,0,0,3.75.75v6h-22.5V75.41a15.31,15.31,0,0,0-1.2-6,17.06,17.06,0,0,0-3.22-5,15.38,15.38,0,0,0-4.73-3.45,13.53,13.53,0,0,0-5.85-1.28,27.11,27.11,0,0,0-9.3,1.58,22.16,22.16,0,0,0-7.65,4.65,21.28,21.28,0,0,0-5.17,7.72,28.74,28.74,0,0,0-1.88,10.8v37.5h-15V75.41a15.31,15.31,0,0,0-1.2-6,17.06,17.06,0,0,0-3.22-5,15.38,15.38,0,0,0-4.73-3.45,13.53,13.53,0,0,0-5.85-1.28,27.11,27.11,0,0,0-9.3,1.58,22.16,22.16,0,0,0-7.65,4.65,21.28,21.28,0,0,0-5.17,7.72,28.74,28.74,0,0,0-1.88,10.8v37.5h-15v-63a4.69,4.69,0,0,0-1.2-3.45,8.51,8.51,0,0,0-2.55-1.8,14.24,14.24,0,0,0-3.75-.75v-6h22.5v8.25a32.36,32.36,0,0,1,11-7.27,34.78,34.78,0,0,1,13-2.48,29.69,29.69,0,0,1,25.5,14.25Z"/><path class="cls-1" d="M22.11,146.16h17.5v15.75h-35V4.41h35V20.16H22.11Z"/><path class="cls-1" d="M270.6,161.91V146.16h17.5v-126H270.6V4.41h35v157.5Z"/><path class="cls-1" d="M69.91,142.61l9.6-9.6a18.69,18.69,0,0,0,5.77,3.38,19.16,19.16,0,0,0,6.83,1.27,14.9,14.9,0,0,0,6.45-1.42,18,18,0,0,0,5.25-3.75,16.91,16.91,0,0,0,3.52-5.48,17.43,17.43,0,0,0,1.28-6.6V58.91a4.73,4.73,0,0,0-1.2-3.45,8.63,8.63,0,0,0-2.55-1.8,14.32,14.32,0,0,0-3.75-.75v-6h22.5v73.5a30.55,30.55,0,0,1-2.48,12.3,31.59,31.59,0,0,1-16.8,16.73,30.71,30.71,0,0,1-12.22,2.47,30,30,0,0,1-12.23-2.47A32.49,32.49,0,0,1,69.91,142.61Zm37.2-125.7a9,9,0,1,1,18,0,8.7,8.7,0,0,1-2.63,6.38,9,9,0,0,1-15.37-6.38Z"/></svg>